<svg viewBox="0 0 64 64" width="64" height="64" xmlns="http://www.w3.org/2000/svg">
  <!-- Fondo con 3 teclas de Cmaj a todo alto -->
  <rect x="0" y="0" width="21.33" height="64" fill="#ff4d4d" /> <!-- C -->
  <rect x="21.33" y="0" width="21.34" height="64" fill="#ffeb3b" /> <!-- E -->
  <rect x="42.67" y="0" width="21.33" height="64" fill="#00ccff" /> <!-- G -->

  <!-- Piano base centrado con borde negro -->
  <rect x="7" y="16" width="50" height="32" rx="6" fill="rgba(255, 255, 255, 0.2)" stroke="black" stroke-width="1.5" />

  <!-- Teclas blancas -->
  <rect x="9" y="18" width="6" height="28" fill="#ffffff" />
  <rect x="16" y="18" width="6" height="28" fill="#ffffff" />
  <rect x="23" y="18" width="6" height="28" fill="#ffffff" />
  <rect x="30" y="18" width="6" height="28" fill="#ffffff" />
  <rect x="37" y="18" width="6" height="28" fill="#ffffff" />
  <rect x="44" y="18" width="6" height="28" fill="#ffffff" />
  <rect x="51" y="18" width="6" height="28" fill="#ffffff" />

  <!-- Teclas negras -->
  <rect x="13" y="18" width="4" height="16" fill="#000000" rx="1" />
  <rect x="20" y="18" width="4" height="16" fill="#000000" rx="1" />
  <rect x="34" y="18" width="4" height="16" fill="#000000" rx="1" />
  <rect x="41" y="18" width="4" height="16" fill="#000000" rx="1" />
  <rect x="48" y="18" width="4" height="16" fill="#000000" rx="1" />
</svg>