<svg viewBox="0 0 64 64" width="64" height="64" xmlns="http://www.w3.org/2000/svg">
  <!-- Rueda modal de 7 colores -->
  <g>
    <path d="M32,4 A28,28 0 0,1 59.97,20.18 L32,32 Z" fill="#e53935"/>
    <path d="M59.97,20.18 A28,28 0 0,1 56,52.43 L32,32 Z" fill="#fb8c00"/>
    <path d="M56,52.43 A28,28 0 0,1 32,60 A28,28 0 0,1 8,52.43 L32,32 Z" fill="#fbc02d"/>
    <path d="M8,52.43 A28,28 0 0,1 4.03,20.18 L32,32 Z" fill="#43a047"/>
    <path d="M4.03,20.18 A28,28 0 0,1 17.5,6.57 L32,32 Z" fill="#1e88e5"/>
    <path d="M17.5,6.57 A28,28 0 0,1 46.5,6.57 L32,32 Z" fill="#6d4cbb"/>
    <path d="M46.5,6.57 A28,28 0 0,1 59.97,20.18 L32,32 Z" fill="#8e24aa"/>
  </g>
  <!-- Círculo fondo blanco para resaltar el piano -->
  <circle cx="32" cy="32" r="22" fill="#fff" stroke="#222" stroke-width="2"/>
  
  <!-- Piano base (fondo) -->
  <rect x="8" y="22" width="48" height="24" rx="4" fill="#f6f6f6" stroke="#111" stroke-width="1.5"/>
  
  <!-- Teclas blancas coloreadas para los modos -->
  <rect x="11" y="25" width="5" height="18" fill="#e53935" stroke="#222" stroke-width="0.5"/> <!-- Ionian -->
  <rect x="17" y="25" width="5" height="18" fill="#fb8c00" stroke="#222" stroke-width="0.5"/> <!-- Dorian -->
  <rect x="23" y="25" width="5" height="18" fill="#fbc02d" stroke="#222" stroke-width="0.5"/> <!-- Phrygian -->
  <rect x="29" y="25" width="5" height="18" fill="#43a047" stroke="#222" stroke-width="0.5"/> <!-- Lydian -->
  <rect x="35" y="25" width="5" height="18" fill="#1e88e5" stroke="#222" stroke-width="0.5"/> <!-- Mixolydian -->
  <rect x="41" y="25" width="5" height="18" fill="#6d4cbb" stroke="#222" stroke-width="0.5"/> <!-- Aeolian -->
  <rect x="47" y="25" width="5" height="18" fill="#8e24aa" stroke="#222" stroke-width="0.5"/> <!-- Locrian -->
  
  <!-- Teclas negras -->
  <rect x="15" y="25" width="3" height="10" fill="#222" rx="0.8"/>
  <rect x="21" y="25" width="3" height="10" fill="#222" rx="0.8"/>
  <rect x="33" y="25" width="3" height="10" fill="#222" rx="0.8"/>
  <rect x="39" y="25" width="3" height="10" fill="#222" rx="0.8"/>
  <rect x="45" y="25" width="3" height="10" fill="#222" rx="0.8"/>
  
  <!-- Iniciales de los modos -->
  <text x="13.5" y="23" font-size="5.5" font-family="monospace" fill="#222" text-anchor="middle">I</text>
  <text x="19.5" y="23" font-size="5.5" font-family="monospace" fill="#222" text-anchor="middle">D</text>
  <text x="25.5" y="23" font-size="5.5" font-family="monospace" fill="#222" text-anchor="middle">P</text>
  <text x="31.5" y="23" font-size="5.5" font-family="monospace" fill="#222" text-anchor="middle">L</text>
  <text x="37.5" y="23" font-size="5.5" font-family="monospace" fill="#222" text-anchor="middle">M</text>
  <text x="43.5" y="23" font-size="5.5" font-family="monospace" fill="#222" text-anchor="middle">A</text>
  <text x="49.5" y="23" font-size="5.5" font-family="monospace" fill="#222" text-anchor="middle">Lc</text>
</svg>